<?xml version="1.0" standalone="no"?>
<!DOCTYPE svg PUBLIC "-//W3C//DTD SVG 20010904//EN"
 "http://www.w3.org/TR/2001/REC-SVG-20010904/DTD/svg10.dtd">
<svg version="1.0" xmlns="http://www.w3.org/2000/svg"
 width="283.000000pt" height="115.000000pt" viewBox="0 0 283.000000 115.000000"
 preserveAspectRatio="xMidYMid meet">

<g transform="translate(0.000000,115.000000) scale(0.100000,-0.100000)"
fill="#000000" stroke="none">
<path d="M518 887 l-158 -92 0 -190 0 -190 157 -90 c86 -49 163 -91 170 -93 7
-2 85 38 173 88 l160 92 0 193 0 194 -159 90 c-87 50 -165 91 -172 90 -8 0
-85 -42 -171 -92z m333 -23 l149 -87 0 -173 0 -172 -150 -86 c-82 -47 -153
-86 -157 -86 -5 0 -73 38 -153 84 l-145 84 0 177 0 177 145 84 c80 46 149 84
154 84 5 0 76 -39 157 -86z"/>
<path d="M558 857 c-70 -39 -124 -75 -120 -78 4 -3 62 -35 129 -70 l122 -64
130 65 c72 35 131 67 131 70 0 7 -245 150 -257 150 -4 0 -65 -33 -135 -73z"/>
<path d="M964 722 c-6 -10 -39 -52 -73 -94 -33 -42 -61 -80 -61 -84 0 -10 126
-84 141 -84 5 0 9 63 9 140 0 77 -1 140 -3 140 -1 0 -7 -8 -13 -18z"/>
<path d="M410 592 l0 -141 67 39 c36 22 70 43 74 47 6 6 -101 156 -136 192 -3
2 -5 -59 -5 -137z"/>
<path d="M614 548 c-11 -16 -15 -17 -11 -5 4 9 2 17 -3 17 -20 0 -8 -27 40
-89 l50 -63 -1 63 c0 59 -16 133 -18 87 -1 -11 -9 -18 -22 -18 -15 0 -19 5
-15 15 8 22 0 18 -20 -7z"/>
<path d="M492 479 c-66 -37 -71 -43 -55 -54 30 -20 231 -135 237 -135 4 0 6
23 6 50 0 45 -5 57 -51 115 -28 36 -54 65 -57 65 -4 0 -40 -19 -80 -41z"/>
<path d="M752 450 c-50 -65 -53 -73 -50 -119 l3 -49 131 76 132 77 -72 42
c-39 24 -75 43 -81 43 -5 -1 -34 -32 -63 -70z"/>
<path d="M2096 779 c-85 -23 -107 -119 -44 -186 48 -52 141 -33 173 34 40 83
-39 176 -129 152z m64 -69 c11 -11 20 -28 20 -37 0 -23 -30 -53 -53 -53 -26 0
-57 28 -57 52 0 22 34 58 55 58 8 0 24 -9 35 -20z"/>
<path d="M2331 776 c-19 -6 -43 -23 -55 -39 -56 -75 16 -190 109 -173 30 6 85
48 85 66 0 15 -54 18 -67 4 -36 -36 -103 7 -88 56 11 35 44 45 82 25 24 -13
39 -16 54 -9 l22 10 -24 27 c-31 35 -75 48 -118 33z"/>
<path d="M1146 683 c40 -111 48 -123 79 -123 19 0 28 15 62 110 l41 110 -33 0
c-27 0 -34 -5 -40 -27 -3 -15 -13 -43 -22 -62 l-15 -36 -21 60 c-20 55 -25 60
-54 63 l-32 3 35 -98z"/>
<path d="M1340 675 l0 -105 76 0 c72 0 75 1 72 22 -2 19 -9 22 -43 23 -30 0
-41 4 -43 18 -3 14 4 17 37 17 37 0 41 2 41 25 0 23 -4 25 -40 25 -29 0 -40 4
-40 15 0 11 11 15 40 15 36 0 40 3 40 25 0 24 -2 25 -70 25 l-70 0 0 -105z"/>
<path d="M1520 675 l0 -105 30 0 c28 0 30 3 30 35 0 19 4 35 8 35 5 0 16 -16
25 -35 14 -29 22 -35 47 -35 36 0 36 4 9 49 -17 29 -18 35 -5 45 8 6 18 23 21
38 5 21 1 33 -19 52 -21 22 -34 26 -86 26 l-60 0 0 -105z m105 35 c0 -8 -10
-16 -22 -18 -18 -3 -23 2 -23 18 0 16 5 21 23 18 12 -2 22 -10 22 -18z"/>
<path d="M1710 670 l0 -110 35 0 35 0 0 110 0 110 -35 0 -35 0 0 -110z"/>
<path d="M1800 676 l0 -106 65 0 c57 0 68 3 97 28 27 25 31 36 31 76 0 38 -5
53 -26 74 -23 22 -37 27 -97 30 l-70 4 0 -106z m111 44 c13 -7 19 -21 19 -43
0 -39 -15 -57 -47 -57 -21 0 -23 4 -23 55 0 59 9 67 51 45z"/>
<path d="M1192 508 c-6 -6 -12 -25 -12 -40 0 -21 6 -29 24 -34 14 -3 30 -3 35
1 17 10 13 45 -5 45 -10 0 -14 -6 -10 -15 3 -9 0 -15 -9 -15 -9 0 -15 10 -15
26 0 23 3 25 26 20 19 -5 25 -3 22 6 -6 18 -40 22 -56 6z"/>
<path d="M1290 475 c0 -43 1 -45 30 -45 17 0 30 5 30 10 0 6 -9 10 -20 10 -16
0 -20 7 -20 35 0 19 -4 35 -10 35 -5 0 -10 -20 -10 -45z"/>
<path d="M1389 499 c-8 -16 -8 -28 0 -45 18 -41 71 -25 71 21 0 44 -50 61 -71
24z m51 -24 c0 -28 -24 -34 -34 -9 -8 20 1 34 20 34 8 0 14 -10 14 -25z"/>
<path d="M1500 476 c0 -41 2 -46 23 -46 33 0 45 17 38 53 -5 25 -12 33 -34 35
-26 3 -27 1 -27 -42z m40 14 c0 -5 -4 -10 -10 -10 -5 0 -10 5 -10 10 0 6 5 10
10 10 6 0 10 -4 10 -10z m5 -30 c3 -5 -1 -10 -9 -10 -9 0 -16 5 -16 10 0 6 4
10 9 10 6 0 13 -4 16 -10z"/>
<path d="M1621 498 c-25 -67 -22 -85 7 -56 9 9 15 9 24 0 23 -23 27 -12 11 33
-17 50 -29 57 -42 23z"/>
<path d="M1710 475 c0 -43 1 -45 30 -45 17 0 30 5 30 10 0 6 -9 10 -20 10 -16
0 -20 7 -20 35 0 19 -4 35 -10 35 -5 0 -10 -20 -10 -45z"/>
<path d="M1863 513 c12 -3 17 -16 19 -46 l1 -42 4 40 c3 22 10 43 16 47 7 4
-4 7 -23 7 -19 -1 -27 -3 -17 -6z"/>
<path d="M1952 500 c-11 -29 -25 -81 -16 -62 3 6 14 12 24 12 10 0 21 -6 23
-12 12 -29 5 19 -8 52 l-13 35 -10 -25z m14 -37 c-10 -10 -19 5 -10 18 6 11 8
11 12 0 2 -7 1 -15 -2 -18z"/>
<path d="M2021 473 c2 -46 2 -46 8 -13 6 31 8 32 14 13 4 -11 14 -27 22 -33
13 -11 15 -6 14 31 -1 40 -2 41 -8 14 l-7 -30 -17 33 c-10 17 -20 32 -22 32
-3 0 -4 -21 -4 -47z"/>
<path d="M2123 513 c20 -5 21 -10 2 -43 -20 -35 -19 -40 13 -39 23 2 24 2 5 6
l-23 4 20 40 20 39 -27 -1 c-17 -1 -21 -3 -10 -6z"/>
<path d="M2197 475 c-15 -42 -15 -44 3 -33 14 9 22 9 34 -1 14 -12 14 -8 0 33
-9 25 -17 46 -19 46 -2 0 -10 -20 -18 -45z m23 5 c0 -11 -4 -20 -9 -20 -5 0
-7 9 -4 20 3 11 7 20 9 20 2 0 4 -9 4 -20z"/>
<path d="M2271 474 c2 -46 2 -47 8 -14 l7 35 17 -32 c10 -18 20 -33 22 -33 3
0 4 21 4 48 -2 45 -2 45 -8 12 -6 -31 -8 -32 -14 -13 -4 11 -14 27 -22 33 -13
11 -15 5 -14 -36z"/>
<path d="M2373 475 c0 -27 2 -38 4 -22 2 15 2 37 0 50 -2 12 -4 0 -4 -28z"/>
<path d="M2417 475 c-15 -42 -15 -44 3 -33 14 9 22 9 34 -1 14 -12 14 -8 0 33
-9 25 -17 46 -19 46 -2 0 -10 -20 -18 -45z m26 5 c3 -12 0 -20 -8 -20 -8 0
-11 8 -8 20 3 11 7 20 8 20 1 0 5 -9 8 -20z"/>
</g>
</svg>
