<svg xmlns="http://www.w3.org/2000/svg" width="778.766" height="131.224" viewBox="0 0 778.766 131.224">
  <g id="Group_221" data-name="Group 221" transform="translate(-269.648 12.256)">
    <g id="Group_220" data-name="Group 220" transform="translate(269.648 -12.256)">
      <path id="Path_246" data-name="Path 246" d="M376.633,56.127l-8.116,11.344-7.851-22.778C373.692,46.374,376.633,56.127,376.633,56.127Z" transform="translate(-292.665 -2.145)" fill="#f07400"/>
      <path id="Path_247" data-name="Path 247" d="M314.071,10.633C297.95,9.283,297.286-.115,297.264-.735V-.756l7.585-11.5Z" transform="translate(-276.632 12.256)" fill="#f07400"/>
      <path id="Path_248" data-name="Path 248" d="M375.576,14.621,361.931,33.949v.022h-.022L357.044,40.8l-3.428,4.821s-2.941-9.753-15.967-11.434a32.088,32.088,0,0,0-3.98-.243H269.648l13.069-19.306v-.022L290.28,3.165c.022.619.686,10.018,16.807,11.367.42.044.862.066,1.3.088Z" transform="translate(-269.648 8.356)" fill="#249fde"/>
      <path id="Path_249" data-name="Path 249" d="M381.014,135.719,372.9,147.064l-7.851-22.777C378.072,125.967,381.014,135.719,381.014,135.719Z" transform="translate(-293.773 -22.273)" fill="#f07400"/>
      <path id="Path_250" data-name="Path 250" d="M318.46,90.226c-16.653-1.393-16.785-11.389-16.785-11.389l7.563-11.5Z" transform="translate(-277.747 -7.872)" fill="#f07400"/>
      <path id="Path_251" data-name="Path 251" d="M379.964,94.206,366.32,113.534l-.022.022-8.249,11.609-.044.044s-2.941-9.752-15.967-11.432a31.942,31.942,0,0,0-3.981-.244h-64l13.048-19.306v-.022l7.586-11.477s.132,10,16.785,11.389c.42.044.862.066,1.3.088Z" transform="translate(-270.763 -11.764)" fill="#249fde"/>
    </g>
    <path id="Path_252" data-name="Path 252" d="M463.551,85.932l8.572-19.852a56.944,56.944,0,0,0,30.463,9.383c10.815,0,15.034-3.128,15.034-7.751,0-15.091-52.487-4.079-52.487-39.428,0-17,13.45-30.861,40.882-30.861,12,0,24.4,2.853,33.5,8.292L531.468,25.7c-8.836-4.894-17.54-7.34-25.584-7.34-10.945,0-14.9,3.807-14.9,8.563,0,14.547,52.354,3.672,52.354,38.749,0,16.587-13.451,30.728-40.882,30.728C487.288,96.4,472.255,92.185,463.551,85.932Z" transform="translate(-49.034 -2.448)" fill="#f07400"/>
    <path id="Path_253" data-name="Path 253" d="M655.249,71.679H603.29c2.109,7.479,8.308,11.829,17.539,11.829,6.989,0,11.606-2.042,16.484-6.392L650.5,91.256c-6.857,7.885-16.88,11.964-30.462,11.964-25.452,0-41.938-16.177-41.938-38.2,0-22.163,16.75-37.933,39.3-37.933,21.1,0,38.243,13.868,38.243,38.2C655.643,67.191,655.38,69.64,655.249,71.679Zm-52.355-13.6H632.17c-1.319-7.751-6.857-12.645-14.638-12.645S604.344,50.332,602.894,58.083Z" transform="translate(-78.002 -9.948)" fill="#f07400"/>
    <path id="Path_254" data-name="Path 254" d="M772.8,59.85V102H747.747V64.063c0-10.6-4.484-15.092-11.737-15.092-8.044,0-14.243,5.167-14.243,17.4V102H696.711V28.307h23.87V36.33c5.671-6.118,13.716-9.246,22.683-9.246C760.011,27.084,772.8,37.008,772.8,59.85Z" transform="translate(-107.996 -9.948)" fill="#f07400"/>
    <path id="Path_255" data-name="Path 255" d="M865.63,93.852c-4.352,2.855-10.814,4.213-17.407,4.213-18.331,0-29.013-9.243-29.013-28.143V45.178H808.792v-19.3H819.21V6.7h25.056V25.874h16.353v19.3H844.266V69.653c0,5.436,3.033,8.429,7.517,8.429a13.427,13.427,0,0,0,7.65-2.312Z" transform="translate(-136.339 -4.794)" fill="#f07400"/>
    <path id="Path_256" data-name="Path 256" d="M965.366,71.679H913.407c2.109,7.479,8.308,11.829,17.539,11.829,6.989,0,11.606-2.042,16.484-6.392l13.188,14.14c-6.858,7.885-16.88,11.964-30.463,11.964-25.452,0-41.937-16.177-41.937-38.2,0-22.163,16.749-37.933,39.3-37.933,21.1,0,38.243,13.868,38.243,38.2C965.761,67.191,965.5,69.64,965.366,71.679Zm-52.355-13.6h29.276c-1.319-7.751-6.857-12.645-14.638-12.645S914.462,50.332,913.011,58.083Z" transform="translate(-156.424 -9.948)" fill="#f07400"/>
    <path id="Path_257" data-name="Path 257" d="M1087.887,32.056c0,19.986-13.979,31.95-37.189,31.95h-26.376V95.139H1017.6V-.031h33.1C1073.908-.031,1087.887,11.933,1087.887,32.056Zm-6.859,0c0-16.452-10.549-25.832-30.331-25.832h-26.376V57.75H1050.7C1070.479,57.75,1081.028,48.37,1081.028,32.056Z" transform="translate(-189.142 -3.091)" fill="#249fde"/>
    <path id="Path_258" data-name="Path 258" d="M1185.236,58.145v45h-6.328V90.5c-4.354,8.157-12.794,13.187-24.795,13.187-15.429,0-24.792-8.158-24.792-20.259,0-10.741,6.595-19.849,25.716-19.849h23.607V57.873c0-13.187-6.99-20.258-20.441-20.258a35.118,35.118,0,0,0-23.739,8.974l-3.295-4.9c6.856-6.253,16.88-10.059,27.562-10.059C1175.742,31.634,1185.236,40.608,1185.236,58.145Zm-6.593,24.065V68.885h-23.474c-14.243,0-19.253,6.118-19.253,14.275,0,9.246,6.988,14.957,19.121,14.957C1166.643,98.117,1174.687,92.406,1178.644,82.209Z" transform="translate(-217.395 -11.099)" fill="#249fde"/>
    <path id="Path_259" data-name="Path 259" d="M1287.367,32.363l-35.342,80.623c-5.538,13.052-12.4,17.265-21.495,17.265-6.2,0-12-2.173-15.959-6.389l3.3-5.167a16.52,16.52,0,0,0,12.794,5.574c6.327,0,10.945-2.99,15.163-12.643l3.694-8.566-30.991-70.7h6.989l27.564,63.49,27.561-63.49Z" transform="translate(-238.953 -11.283)" fill="#249fde"/>
  </g>
</svg>
